<svg xmlns="http://www.w3.org/2000/svg" width="256" height="256" viewBox="0 0 256 256" role="img" aria-labelledby="title desc">
  <title id="title">Fallback rank icon</title>
  <desc id="desc">A red and gold shield rank emblem.</desc>
  <defs>
    <linearGradient id="g" x1="32" y1="24" x2="224" y2="232" gradientUnits="userSpaceOnUse">
      <stop stop-color="#FF4655"/>
      <stop offset="1" stop-color="#E7B85A"/>
    </linearGradient>
    <filter id="s" x="-20%" y="-20%" width="140%" height="140%">
      <feDropShadow dx="0" dy="14" stdDeviation="14" flood-color="#000" flood-opacity=".45"/>
    </filter>
  </defs>
  <rect width="256" height="256" rx="56" fill="#0B1020"/>
  <path filter="url(#s)" d="M128 24 214 61v65c0 56-34 92-86 110-52-18-86-54-86-110V61l86-37Z" fill="url(#g)"/>
  <path d="m128 57 52 23v43c0 34-20 58-52 72-32-14-52-38-52-72V80l52-23Z" fill="#101827" opacity=".78"/>
  <path d="m128 78 14 31 34 4-25 22 7 34-30-18-30 18 7-34-25-22 34-4 14-31Z" fill="#F8FAFC"/>
</svg>
