<?xml version="1.0" encoding="UTF-8"?>
<svg version="1.1" xmlns="http://www.w3.org/2000/svg" width="1536" height="1024">
<path d="M0 0 C1.99763489 0.06724548 1.99763489 0.06724548 2.99763489 1.06724548 C3.30810301 6.24171418 2.58218694 10.21455482 0.99763489 15.06724548 C0.33763489 15.06724548 -0.32236511 15.06724548 -1.00236511 15.06724548 C-1.08486511 15.70662048 -1.16736511 16.34599548 -1.25236511 17.00474548 C-2.29014971 21.24236592 -3.90531544 25.23716231 -6.00236511 29.06724548 C-6.66236511 29.39724548 -7.32236511 29.72724548 -8.00236511 30.06724548 C-9.12461367 31.94737654 -9.12461367 31.94737654 -10.12736511 34.12974548 C-10.48056824 34.86322205 -10.83377136 35.59669861 -11.19767761 36.35240173 C-11.46322449 36.91830017 -11.72877136 37.48419861 -12.00236511 38.06724548 C-12.66236511 38.06724548 -13.32236511 38.06724548 -14.00236511 38.06724548 C-14.15705261 39.11912048 -14.15705261 39.11912048 -14.31486511 40.19224548 C-16.11399349 47.71587323 -20.60079236 52.87311161 -27.00236511 57.06724548 C-27.66236511 57.06724548 -28.32236511 57.06724548 -29.00236511 57.06724548 C-29.00236511 57.72724548 -29.00236511 58.38724548 -29.00236511 59.06724548 C-35.82441374 61.83787225 -41.89172569 62.51977207 -49.21330261 62.54380798 C-50.26208588 62.55938751 -51.31086914 62.57496704 -52.39143372 62.59101868 C-55.72007008 62.6382077 -59.04850251 62.66616327 -62.37736511 62.69224548 C-65.69893806 62.72899069 -69.0204022 62.76987369 -72.34187317 62.81489563 C-74.39989319 62.84166364 -76.45799078 62.86320519 -78.51612854 62.87843323 C-85.05527504 62.94898636 -91.49922126 63.38102988 -98.00236511 64.06724548 C-98.00236511 64.72724548 -98.00236511 65.38724548 -98.00236511 66.06724548 C-99.60386397 66.74029566 -101.20867541 67.40546775 -102.81486511 68.06724548 C-103.70818542 68.43849548 -104.60150574 68.80974548 -105.52189636 69.19224548 C-108.00236511 70.06724548 -108.00236511 70.06724548 -111.00236511 70.06724548 C-111.40455261 70.96443298 -111.40455261 70.96443298 -111.81486511 71.87974548 C-113.00153917 74.06572402 -114.09835624 75.48057142 -116.00236511 77.06724548 C-116.66236511 77.06724548 -117.32236511 77.06724548 -118.00236511 77.06724548 C-118.29111511 77.64474548 -118.57986511 78.22224548 -118.87736511 78.81724548 C-119.91903178 80.90057882 -120.96069845 82.98391215 -122.00236511 85.06724548 C-122.66236511 85.06724548 -123.32236511 85.06724548 -124.00236511 85.06724548 C-124.48746304 86.44016416 -124.96512024 87.81571252 -125.43986511 89.19224548 C-125.70670105 89.95794861 -125.97353699 90.72365173 -126.24845886 91.51255798 C-127.64864744 96.25723843 -128.13326902 100.9741208 -128.31877136 105.90318298 C-128.36066589 106.96665955 -128.40256042 108.03013611 -128.44572449 109.12583923 C-128.48504089 110.2202533 -128.5243573 111.31466736 -128.56486511 112.44224548 C-128.6296405 114.11867126 -128.6296405 114.11867126 -128.69572449 115.82896423 C-128.80133923 118.57494747 -128.90344481 121.32101429 -129.00236511 124.06724548 C-129.66236511 124.06724548 -130.32236511 124.06724548 -131.00236511 124.06724548 C-131.00236511 131.65724548 -131.00236511 139.24724548 -131.00236511 147.06724548 C-130.34236511 147.06724548 -129.68236511 147.06724548 -129.00236511 147.06724548 C-129.00236511 155.40057882 -129.00236511 163.73391215 -129.00236511 172.06724548 C-129.66236511 172.06724548 -130.32236511 172.06724548 -131.00236511 172.06724548 C-131.00236511 191.53724548 -131.00236511 211.00724548 -131.00236511 231.06724548 C-111.20236511 231.06724548 -91.40236511 231.06724548 -71.00236511 231.06724548 C-71.00236511 220.83724548 -71.00236511 210.60724548 -71.00236511 200.06724548 C-86.84236511 200.06724548 -102.68236511 200.06724548 -119.00236511 200.06724548 C-119.98721088 195.14301664 -120.03578805 194.25370446 -118.00236511 190.06724548 C-117.34236511 190.06724548 -116.68236511 190.06724548 -116.00236511 190.06724548 C-115.79740417 189.15201111 -115.59244324 188.23677673 -115.38127136 187.29380798 C-115.1118573 186.10529236 -114.84244324 184.91677673 -114.56486511 183.69224548 C-114.29802917 182.50888611 -114.03119324 181.32552673 -113.75627136 180.10630798 C-113.00236511 177.06724548 -113.00236511 177.06724548 -112.00236511 175.06724548 C-111.34236511 175.06724548 -110.68236511 175.06724548 -110.00236511 175.06724548 C-109.91986511 173.97412048 -109.83736511 172.88099548 -109.75236511 171.75474548 C-109.08732133 166.2259487 -107.03777239 161.21729924 -105.00236511 156.06724548 C-104.34236511 156.06724548 -103.68236511 156.06724548 -103.00236511 156.06724548 C-102.88119324 155.4033783 -102.76002136 154.73951111 -102.63517761 154.05552673 C-101.77688804 149.53300089 -100.962652 145.26786024 -99.00236511 141.06724548 C-98.34236511 141.06724548 -97.68236511 141.06724548 -97.00236511 141.06724548 C-96.73424011 140.46912048 -96.46611511 139.87099548 -96.18986511 139.25474548 C-93.93216236 135.09581936 -91.4806764 133.52530032 -87.00236511 132.06724548 C-81.07260009 130.72986625 -75.12080807 130.92334393 -69.07658386 130.93443298 C-67.3615844 130.93299789 -67.3615844 130.93299789 -65.61193848 130.93153381 C-63.20391281 130.93085499 -60.79588528 130.93268849 -58.38786316 130.93687439 C-54.6857549 130.94225145 -50.98376661 130.93690671 -47.28166199 130.93052673 C-44.94246901 130.93118708 -42.60327611 130.93246735 -40.26408386 130.93443298 C-39.15063095 130.93240875 -38.03717804 130.93038452 -36.88998413 130.92829895 C-35.86834671 130.93145111 -34.84670929 130.93460327 -33.79411316 130.93785095 C-32.89065659 130.93864655 -31.98720001 130.93944214 -31.05636597 130.94026184 C-29.00236511 131.06724548 -29.00236511 131.06724548 -28.00236511 132.06724548 C-27.90431702 135.16438807 -27.87245869 138.23924664 -27.8821106 141.33679199 C-27.88082896 142.81427781 -27.88082896 142.81427781 -27.87952143 144.32161182 C-27.87786364 147.64903183 -27.88339287 150.97640232 -27.88883972 154.30381775 C-27.88912156 156.67831928 -27.88896394 159.0528209 -27.88839722 161.42732239 C-27.88813906 167.22314568 -27.89249038 173.01895254 -27.89883488 178.81477208 C-27.90596881 185.55626673 -27.90747877 192.29775902 -27.90862305 199.03925692 C-27.91081389 211.06250594 -27.91747484 223.08574819 -27.92692566 235.10899353 C-27.93609895 246.79128485 -27.94318019 258.47357434 -27.94743347 270.15586853 C-27.9476962 270.87547174 -27.94795892 271.59507495 -27.9482296 272.33648432 C-27.9495346 275.94637485 -27.95079832 279.55626539 -27.95204151 283.16615593 C-27.96241512 313.13319053 -27.98010842 343.10021722 -28.00236511 373.06724548 C-33.47596011 372.38304611 -35.24062503 371.11111607 -39.00236511 367.06724548 C-40.09549011 366.34537048 -41.18861511 365.62349548 -42.31486511 364.87974548 C-43.20174011 364.28162048 -44.08861511 363.68349548 -45.00236511 363.06724548 C-45.00236511 362.40724548 -45.00236511 361.74724548 -45.00236511 361.06724548 C-45.76549011 360.77849548 -46.52861511 360.48974548 -47.31486511 360.19224548 C-50.00236511 359.06724548 -50.00236511 359.06724548 -53.00236511 357.06724548 C-53.00236511 356.40724548 -53.00236511 355.74724548 -53.00236511 355.06724548 C-53.86861511 354.63412048 -53.86861511 354.63412048 -54.75236511 354.19224548 C-55.49486511 353.82099548 -56.23736511 353.44974548 -57.00236511 353.06724548 C-58.02330261 352.60318298 -58.02330261 352.60318298 -59.06486511 352.12974548 C-61.1335935 350.99528153 -62.33883553 349.73077506 -64.00236511 348.06724548 C-65.03361511 347.38662048 -66.06486511 346.70599548 -67.12736511 346.00474548 C-70.00236511 344.06724548 -70.00236511 344.06724548 -71.00236511 342.06724548 C-72.23986511 341.35568298 -72.23986511 341.35568298 -73.50236511 340.62974548 C-76.00236511 339.06724548 -76.00236511 339.06724548 -77.00236511 336.06724548 C-78.3327496 335.72233099 -79.66693573 335.39207966 -81.00236511 335.06724548 C-84.25236511 333.12974548 -84.25236511 333.12974548 -87.00236511 331.06724548 C-87.00236511 330.40724548 -87.00236511 329.74724548 -87.00236511 329.06724548 C-87.74486511 328.81974548 -88.48736511 328.57224548 -89.25236511 328.31724548 C-92.24742206 326.95585596 -93.73069685 325.40990338 -96.00236511 323.06724548 C-97.66084689 322.05372884 -99.32902472 321.05603753 -101.00236511 320.06724548 C-103.03586295 318.56140178 -105.0406347 317.02360202 -107.03752136 315.46958923 C-108.95609088 314.01137705 -108.95609088 314.01137705 -111.12345886 313.07115173 C-113.00236511 312.06724548 -113.00236511 312.06724548 -115.00236511 309.06724548 C-118.47098941 306.74942644 -122.17747724 306.47047169 -126.25236511 305.94224548 C-127.51564636 305.77466736 -128.77892761 305.60708923 -130.08049011 305.43443298 C-131.04470886 305.31326111 -132.00892761 305.19208923 -133.00236511 305.06724548 C-133.00236511 304.40724548 -133.00236511 303.74724548 -133.00236511 303.06724548 C-134.26049011 302.96412048 -135.51861511 302.86099548 -136.81486511 302.75474548 C-142.38748691 302.15134058 -147.64196569 300.66033615 -153.00236511 299.06724548 C-153.00236511 298.40724548 -153.00236511 297.74724548 -153.00236511 297.06724548 C-153.84799011 296.79912048 -154.69361511 296.53099548 -155.56486511 296.25474548 C-165.4984281 292.823151 -165.4984281 292.823151 -168.00236511 289.06724548 C-168.76549011 288.61349548 -169.52861511 288.15974548 -170.31486511 287.69224548 C-173.42933839 285.80907559 -175.5160226 283.73118389 -178.00236511 281.06724548 C-178.89375183 280.13138611 -178.89375183 280.13138611 -179.80314636 279.17662048 C-183.34149089 275.33791959 -185.82578163 272.29650541 -187.00236511 267.06724548 C-187.66236511 267.06724548 -188.32236511 267.06724548 -189.00236511 267.06724548 C-192.06683272 259.69826988 -193.69358005 253.04933927 -194.00236511 245.06724548 C-194.66236511 245.06724548 -195.32236511 245.06724548 -196.00236511 245.06724548 C-196.13494738 232.38986505 -196.26544803 219.71246488 -196.39351654 207.03503799 C-196.45308823 201.14407068 -196.51329393 195.25311149 -196.57511902 189.36216736 C-197.04745773 144.25811641 -197.04745773 144.25811641 -197.09048462 124.82520294 C-197.09415148 123.34453074 -197.09941091 121.86386134 -197.10650635 120.3832016 C-197.14572863 111.55925352 -196.82570778 102.85415432 -196.00236511 94.06724548 C-195.34236511 94.06724548 -194.68236511 94.06724548 -194.00236511 94.06724548 C-194.05392761 92.94318298 -194.10549011 91.81912048 -194.15861511 90.66099548 C-194.15861511 85.68601845 -192.92881056 81.30150227 -191.50236511 76.56724548 C-191.26388855 75.74482361 -191.02541199 74.92240173 -190.77970886 74.07505798 C-190.19674772 72.06967166 -189.60089361 70.06804073 -189.00236511 68.06724548 C-188.34236511 68.06724548 -187.68236511 68.06724548 -187.00236511 68.06724548 C-186.84767761 66.79880798 -186.84767761 66.79880798 -186.68986511 65.50474548 C-185.61073687 60.10910427 -183.97107853 55.87721036 -180.00236511 52.06724548 C-179.0507564 50.39372671 -178.10076021 48.71922061 -177.16642761 47.03599548 C-173.8745894 41.46859125 -170.20603012 36.93663742 -165.00236511 33.06724548 C-162.44601632 30.57480541 -159.9646 28.02759212 -157.50236511 25.44224548 C-151.84447038 20.06724548 -151.84447038 20.06724548 -148.00236511 20.06724548 C-148.00236511 19.40724548 -148.00236511 18.74724548 -148.00236511 18.06724548 C-146.3798657 17.22905391 -144.75428015 16.39683389 -143.12736511 15.56724548 C-142.22244324 15.10318298 -141.31752136 14.63912048 -140.38517761 14.16099548 C-138.00236511 13.06724548 -138.00236511 13.06724548 -136.00236511 13.06724548 C-136.00236511 12.40724548 -136.00236511 11.74724548 -136.00236511 11.06724548 C-134.25543717 10.39256986 -132.50467986 9.72780392 -130.75236511 9.06724548 C-129.77783386 8.69599548 -128.80330261 8.32474548 -127.79924011 7.94224548 C-125.00236511 7.06724548 -125.00236511 7.06724548 -121.00236511 7.06724548 C-121.00236511 6.40724548 -121.00236511 5.74724548 -121.00236511 5.06724548 C-118.87902542 4.58077428 -116.75357898 4.10349676 -114.62736511 3.62974548 C-113.44400574 3.36290955 -112.26064636 3.09607361 -111.04142761 2.82115173 C-103.21214982 1.2414426 -95.28351183 0.91682014 -87.31755066 0.86192322 C-85.95215401 0.84707382 -85.95215401 0.84707382 -84.55917358 0.83192444 C-81.58583566 0.80064117 -78.61248201 0.77567638 -75.63908386 0.75083923 C-73.55784731 0.73023263 -71.4766146 0.70923528 -69.39538574 0.68786621 C-63.94106743 0.63293695 -58.48671301 0.58341785 -53.03233337 0.53501892 C-47.47738868 0.48470662 -41.92249821 0.42900237 -36.36759949 0.37388611 C-28.25849295 0.29428073 -20.1493732 0.21645932 -12.04020691 0.14317322 C-11.19492432 0.13539352 -10.34964172 0.12761383 -9.47874451 0.11959839 C-7.96346115 0.10611786 -6.4481627 0.09418414 -4.93285179 0.08427238 C-3.28839189 0.06976824 -1.64411153 0.03682399 0 0 Z " fill="#3B3B3B" transform="translate(796.0023651123047,323.93275451660156)"/>
<path d="M0 0 C0 0.66 0 1.32 0 2 C0.99 2.12375 0.99 2.12375 2 2.25 C5.99039163 3.24759791 9.38549643 5.07166683 13 7 C13 7.66 13 8.32 13 9 C13.99 9.2784375 13.99 9.2784375 15 9.5625 C19.31761759 11.63135843 22.52999606 14.74051931 26 18 C26.55429687 18.50660156 27.10859375 19.01320313 27.6796875 19.53515625 C29 21 29 21 30 24 C30.61875 24.5775 31.2375 25.155 31.875 25.75 C35.19081307 29.2608609 37 33.15372325 37 38 C37.66 38 38.32 38 39 38 C42.26900323 51.48720831 43.7749309 63.44426239 42.125 77.25 C42.04660889 77.92353516 41.96821777 78.59707031 41.88745117 79.29101562 C41.35795205 83.39704526 40.43423635 87.11912518 39 91 C38.34 91 37.68 91 37 91 C36.8453125 92.051875 36.8453125 92.051875 36.6875 93.125 C35.89428228 96.44209227 34.7340914 99.06538379 33 102 C32.01 102.33 31.02 102.66 30 103 C29.731875 103.7425 29.46375 104.485 29.1875 105.25 C27.58679305 108.9569003 25.15564895 110.53859382 22 113 C21.401875 113.639375 20.80375 114.27875 20.1875 114.9375 C17.34886723 117.61392518 14.19615895 119.61623112 10.92578125 121.73046875 C9.07504484 122.85789521 9.07504484 122.85789521 8 124 C10.31 124.99 12.62 125.98 15 127 C15 127.66 15 128.32 15 129 C15.515625 129.0825 16.03125 129.165 16.5625 129.25 C22.62580545 131.11563245 26.31053666 133.95773344 30 139 C30.86625 139.86625 31.7325 140.7325 32.625 141.625 C37 146 37 146 37 150 C37.99 150.33 38.98 150.66 40 151 C41.16796875 152.92578125 41.16796875 152.92578125 42.1875 155.3125 C42.53167969 156.09238281 42.87585938 156.87226562 43.23046875 157.67578125 C44 160 44 160 44 164 C44.66 164 45.32 164 46 164 C50.36296145 181.37393578 49.74937856 197.56985326 46 215 C45.34 215 44.68 215 44 215 C43.89042969 215.56847656 43.78085937 216.13695312 43.66796875 216.72265625 C42.62201699 221.81635627 41.32991633 226.34016733 39 231 C38.34 231.33 37.68 231.66 37 232 C35.93489565 233.75936265 35.02623787 235.5716434 34.09765625 237.40625 C33 239 33 239 30 240 C29.71125 240.598125 29.4225 241.19625 29.125 241.8125 C27.63763267 244.70460314 25.54429484 245.98823198 23 248 C22.10315544 249.04412695 21.22822489 250.10743586 20.375 251.1875 C18 254 18 254 15 255 C14.401875 255.61875 13.80375 256.2375 13.1875 256.875 C10.68461035 259.30637852 8.11621926 260.47651503 5 262 C4.67 262.66 4.34 263.32 4 264 C2.38901347 264.93761121 0.73588285 265.80391401 -0.9375 266.625 C-1.83339844 267.07101562 -2.72929688 267.51703125 -3.65234375 267.9765625 C-6 269 -6 269 -8 269 C-8 269.66 -8 270.32 -8 271 C-8.75925781 271.32613281 -9.51851562 271.65226562 -10.30078125 271.98828125 C-11.29464844 272.42527344 -12.28851562 272.86226562 -13.3125 273.3125 C-14.79169922 273.95638672 -14.79169922 273.95638672 -16.30078125 274.61328125 C-18.7995977 275.89704368 -20.09517729 277.01558859 -22 279 C-24.0078125 280.09765625 -24.0078125 280.09765625 -26.125 281.0625 C-29.20108021 282.34308323 -29.20108021 282.34308323 -31 285 C-32.61098653 285.93761121 -34.26411715 286.80391401 -35.9375 287.625 C-36.83339844 288.07101562 -37.72929688 288.51703125 -38.65234375 288.9765625 C-41 290 -41 290 -43 290 C-43 290.66 -43 291.32 -43 292 C-44.45537568 292.83848804 -45.91440373 293.67063934 -47.375 294.5 C-48.18710937 294.9640625 -48.99921875 295.428125 -49.8359375 295.90625 C-52 297 -52 297 -54 297 C-54 297.66 -54 298.32 -54 299 C-54.71027344 299.33773438 -55.42054688 299.67546875 -56.15234375 300.0234375 C-57.07144531 300.46945312 -57.99054687 300.91546875 -58.9375 301.375 C-59.85402344 301.81585937 -60.77054688 302.25671875 -61.71484375 302.7109375 C-64.12903802 303.79199162 -64.12903802 303.79199162 -65 306 C-66.75631823 306.94394954 -68.55590347 307.8085551 -70.375 308.625 C-71.35210938 309.07101562 -72.32921875 309.51703125 -73.3359375 309.9765625 C-76 311 -76 311 -79 311 C-79 277.67 -79 244.34 -79 210 C-65.47 209.67 -51.94 209.34 -38 209 C-31.07 208.01 -31.07 208.01 -24 207 C-24 206.34 -24 205.68 -24 205 C-22.39125 204.2575 -22.39125 204.2575 -20.75 203.5 C-16.33351655 200.98778978 -14.68563461 197.67717295 -13 193 C-12.23245168 190.18551086 -12.23245168 190.18551086 -12 188 C-11.34 188 -10.68 188 -10 188 C-10 183.71 -10 179.42 -10 175 C-10.66 175 -11.32 175 -12 175 C-12.64757625 173.56328432 -13.29299453 172.12559584 -13.9375 170.6875 C-14.47697266 169.48673828 -14.47697266 169.48673828 -15.02734375 168.26171875 C-16 166 -16 166 -17 163 C-19.74241636 161.31329259 -22.69698651 160.36273966 -25.75 159.375 C-26.54921875 159.11460937 -27.3484375 158.85421875 -28.171875 158.5859375 C-28.77515625 158.39257812 -29.3784375 158.19921875 -30 158 C-30 157.34 -30 156.68 -30 156 C-31.30670654 156.00523682 -32.61341309 156.01047363 -33.9597168 156.01586914 C-38.81452752 156.03398927 -43.66933526 156.04545768 -48.52416992 156.05493164 C-50.62410993 156.05995581 -52.72404646 156.06677625 -54.82397461 156.07543945 C-57.84489809 156.0875889 -60.86577526 156.09324753 -63.88671875 156.09765625 C-64.82335861 156.10281754 -65.75999847 156.10797882 -66.72502136 156.11329651 C-68.04582451 156.11340981 -68.04582451 156.11340981 -69.39331055 156.11352539 C-70.16386276 156.115746 -70.93441498 156.11796661 -71.72831726 156.12025452 C-74 156 -74 156 -79 155 C-79 132.56 -79 110.12 -79 87 C-73 88 -73 88 -70.5 90.875 C-69.98953125 91.64457031 -69.98953125 91.64457031 -69.46875 92.4296875 C-66.52406782 95.57799132 -63.51600555 96.85396888 -59.22216797 97.26757812 C-55.8720707 97.36842578 -52.53872043 97.35948851 -49.1875 97.3125 C-47.48110352 97.31733398 -47.48110352 97.31733398 -45.74023438 97.32226562 C-39.22133414 97.28088772 -33.28238894 96.73706234 -27 95 C-26.27965576 94.85344971 -25.55931152 94.70689941 -24.81713867 94.5559082 C-24.21748291 94.3724585 -23.61782715 94.18900879 -23 94 C-22.3162955 92.67532254 -21.65035814 91.34136367 -21 90 C-20.34644531 89.73832031 -19.69289063 89.47664063 -19.01953125 89.20703125 C-16.76812462 88.15099485 -16.76812462 88.15099485 -16.13671875 85.6015625 C-14.89786884 77.39283526 -14.01034823 67.97240473 -17 60 C-18.485 59.505 -18.485 59.505 -20 59 C-21.175625 57.7934375 -21.175625 57.7934375 -22.375 56.5625 C-24.92427486 54.07392216 -26.65213121 53.05218733 -30 52 C-30 51.34 -30 50.68 -30 50 C-63.165 49.505 -63.165 49.505 -97 49 C-97 48.01 -97 47.02 -97 46 C-96.401875 45.731875 -95.80375 45.46375 -95.1875 45.1875 C-93.00800674 44.14892889 -93.00800674 44.14892889 -91.6875 42.625 C-88.90055457 39.94127477 -84.93429375 37 -81 37 C-81 36.34 -81 35.68 -81 35 C-79.3203125 33.7109375 -79.3203125 33.7109375 -77.125 32.375 C-76.04605469 31.70597656 -76.04605469 31.70597656 -74.9453125 31.0234375 C-73 30 -73 30 -71 30 C-70.67 29.01 -70.34 28.02 -70 27 C-68.4765625 25.83203125 -68.4765625 25.83203125 -66.625 24.8125 C-66.01914062 24.46832031 -65.41328125 24.12414062 -64.7890625 23.76953125 C-63 23 -63 23 -60 23 C-59.79375 22.401875 -59.5875 21.80375 -59.375 21.1875 C-57.48884712 18.18680224 -55.16073987 17.51715514 -52 16 C-51.34 15.34 -50.68 14.68 -50 14 C-47.59774176 11.59774176 -45.0332076 10.4829015 -42 9 C-41.67 8.34 -41.34 7.68 -41 7 C-39.00390625 5.7109375 -39.00390625 5.7109375 -36.5625 4.375 C-35.75941406 3.92898438 -34.95632813 3.48296875 -34.12890625 3.0234375 C-32 2 -32 2 -30 2 C-29.67 1.01 -29.34 0.02 -29 -1 C-19.82140642 -7.53092236 -9.6857211 -4.1781542 0 0 Z " fill="#CD3636" transform="translate(864,382)"/>
<path d="M0 0 C0.66 0 1.32 0 2 0 C2 0.66 2 1.32 2 2 C1.34 2 0.68 2 0 2 C0 1.34 0 0.68 0 0 Z " fill="#393939" transform="translate(816,314)"/>
</svg>
