<?xml version="1.0" encoding="UTF-8"?>
<svg version="1.1" xmlns="http://www.w3.org/2000/svg" width="512" height="512">
<path d="M0 0 C1.55566406 2.52197266 1.55566406 2.52197266 3.015625 5.6640625 C3.54414063 6.78554687 4.07265625 7.90703125 4.6171875 9.0625 C5.15601563 10.238125 5.69484375 11.41375 6.25 12.625 C6.80429688 13.80835937 7.35859375 14.99171875 7.9296875 16.2109375 C9.29768382 19.13561929 10.65385927 22.06521059 12 25 C12.71615479 24.91435791 13.43230957 24.82871582 14.17016602 24.74047852 C52.4061399 20.25726441 89.78841677 20.7644512 128 25 C128.34256836 24.25314941 128.68513672 23.50629883 129.03808594 22.73681641 C130.59577891 19.360062 132.17259037 15.99258615 133.75 12.625 C134.55824219 10.8615625 134.55824219 10.8615625 135.3828125 9.0625 C136.17558594 7.38027344 136.17558594 7.38027344 136.984375 5.6640625 C137.46616211 4.62717285 137.94794922 3.5902832 138.44433594 2.52197266 C140.15777086 -0.25577102 140.86186012 -1.17735067 144 -2 C147.00732422 -1.72729492 147.00732422 -1.72729492 150.5546875 -0.98046875 C151.19974243 -0.8470105 151.84479736 -0.71355225 152.50939941 -0.5760498 C154.63512791 -0.12949371 156.75497493 0.33965055 158.875 0.8125 C159.60696594 0.9720517 160.33893188 1.13160339 161.09307861 1.29598999 C185.06679329 6.53851203 208.36217151 13.91397185 231.18457031 22.92871094 C233.61475623 23.85341228 236.03722269 24.65828056 238.5234375 25.4140625 C251.5710301 29.74812111 256.65083551 41.66220626 263 53 C264.07147088 54.83960444 265.14688126 56.676921 266.2265625 58.51171875 C269.22398222 63.63487157 272.12382771 68.80805878 275 74 C275.39493652 74.70334473 275.78987305 75.40668945 276.19677734 76.13134766 C299.44215785 117.63879842 314.31338841 164.37392267 321.75 211.25 C322.04801514 213.11096313 322.04801514 213.11096313 322.35205078 215.00952148 C325.39457137 235.06486822 326.30401125 254.87654375 326.20581055 275.15307617 C326.18737849 279.08844413 326.18530294 283.02357738 326.18554688 286.95898438 C326.18063549 289.50521034 326.17480884 292.05143474 326.16796875 294.59765625 C326.16685593 295.75209732 326.1657431 296.90653839 326.16459656 298.09596252 C326.04065609 319.64487703 326.04065609 319.64487703 323 326 C321.36206055 327.5546875 321.36206055 327.5546875 319.38671875 328.875 C318.64478271 329.37829834 317.90284668 329.88159668 317.13842773 330.40014648 C316.32962158 330.92809814 315.52081543 331.4560498 314.6875 332 C313.83937744 332.56468994 312.99125488 333.12937988 312.11743164 333.71118164 C309.42313102 335.49248641 306.71440656 337.24951067 304 339 C303.16404297 339.54253418 302.32808594 340.08506836 301.46679688 340.64404297 C270.32999997 360.7384235 231.20154896 383.33350943 194 390 C189.52396397 385.00087691 185.78712689 379.88282373 182.25 374.1875 C181.73993408 373.37087891 181.22986816 372.55425781 180.7043457 371.71289062 C177.08860909 365.87212842 173.58037154 359.97294395 170.1875 354 C169.74889648 353.24098389 169.31029297 352.48196777 168.85839844 351.69995117 C167.82420036 349.8430184 166.90127035 347.92496149 166 346 C167 343 167 343 168.95507812 341.88427734 C169.80521484 341.5383252 170.65535156 341.19237305 171.53125 340.8359375 C172.47991943 340.44003418 173.42858887 340.04413086 174.40600586 339.63623047 C175.42702393 339.22002441 176.44804199 338.80381836 177.5 338.375 C187.66120698 334.11187826 197.37267095 329.34995198 207 324 C207.21895274 321.94309198 207.21895274 321.94309198 205.78515625 320.60546875 C203.89414948 319.04892577 202.2552972 317.96843184 200 317 C197.9403298 317.22965143 197.9403298 317.22965143 195.890625 318.1015625 C195.10051025 318.39667725 194.31039551 318.69179199 193.49633789 318.99584961 C192.67254639 319.32721924 191.84875488 319.65858887 191 320 C190.19747803 320.3204126 189.39495605 320.6408252 188.56811523 320.97094727 C186.8620794 321.66154523 185.15814597 322.3573536 183.45605469 323.05761719 C110.54289457 352.81441657 29.03340852 351.43230163 -44 323 C-45.2702051 322.43548272 -46.536602 321.86232923 -47.79931641 321.28125 C-48.42687332 320.99564209 -49.05443024 320.71003418 -49.70100403 320.41577148 C-51.45330448 319.60746441 -53.19445455 318.77511159 -54.93481445 317.94140625 C-57.93940753 316.72063999 -57.93940753 316.72063999 -60.75854492 317.74609375 C-63.03212911 319.01797354 -65.05078687 320.26736611 -67 322 C-67 322.66 -67 323.32 -67 324 C-53.91532637 331.03758729 -40.89264129 337.70401325 -27 343 C-27.54260474 347.83211516 -29.05109654 351.60194716 -31.375 355.8125 C-31.72296631 356.45268066 -32.07093262 357.09286133 -32.42944336 357.75244141 C-38.69594463 369.06843565 -45.78016451 380.00539182 -54 390 C-96.58168732 378.96337381 -136.97427062 357.94251348 -173 333 C-173.5563916 332.6179541 -174.1127832 332.2359082 -174.68603516 331.84228516 C-183.81890408 325.54328775 -183.81890408 325.54328775 -185 322 C-186.01450403 313.24882656 -186.16949128 304.4602857 -186.203125 295.66015625 C-186.21013931 294.42736435 -186.21715363 293.19457245 -186.22438049 291.92442322 C-186.24178293 287.97043188 -186.24881383 284.01652148 -186.25 280.0625 C-186.25044186 279.38948853 -186.25088371 278.71647705 -186.25133896 278.02307129 C-186.25816681 258.20179432 -186.10258209 238.62668223 -183 219 C-182.82307617 217.84419434 -182.64615234 216.68838867 -182.46386719 215.49755859 C-175.8547011 173.29135546 -163.40722789 132.56336103 -145 94 C-144.55430664 93.06478516 -144.10861328 92.12957031 -143.64941406 91.16601562 C-136.94370824 77.20231525 -129.64488048 63.7234621 -121.515625 50.53808594 C-120.06982843 48.11693562 -118.74376189 45.66259644 -117.4375 43.1640625 C-111.21438613 31.70314071 -104.15718774 27.31341692 -91.98876953 23.04785156 C-88.79195716 21.92706095 -85.63035544 20.72965529 -82.46484375 19.5234375 C-61.09907088 11.50823948 -39.30356297 5.16021855 -17 0.375 C-15.75871338 0.10268555 -14.51742676 -0.16962891 -13.23852539 -0.45019531 C-12.08731201 -0.68577148 -10.93609863 -0.92134766 -9.75 -1.1640625 C-8.22632813 -1.48044678 -8.22632813 -1.48044678 -6.671875 -1.80322266 C-3.59453127 -2.02986182 -2.44040993 -1.87623614 0 0 Z M-47.859375 177.171875 C-58.325932 190.99995396 -61.37338072 205.97007903 -60 223 C-57.66517823 236.05377626 -50.366891 248.89803172 -39.546875 256.7890625 C-28.38684955 263.7384035 -18.00960442 266.33340087 -4.9453125 263.77734375 C7.34974058 260.5323629 16.67559811 252.01452642 23.53515625 241.5234375 C31.1031259 228.48634845 32.69169916 213.42228815 29.24609375 198.80078125 C24.73630847 184.06378417 16.19001568 173.01146473 2.5859375 165.703125 C-15.06405821 157.76925071 -34.8536523 163.4176215 -47.859375 177.171875 Z M124.32421875 175.484375 C112.53354024 188.24605056 109.30979285 203.02675231 109.86816406 219.82958984 C110.64448098 232.61006658 117.5582975 245.53334423 127 254 C137.8324621 262.11248622 148.27723307 266.17716209 161.875 264.4375 C174.12882944 262.02125194 183.25808549 255.71701711 191 246 C199.49297962 232.75592027 203.18023762 217.59622692 199.86791992 202.16137695 C196.51758215 187.89547611 189.94289592 176.75031893 177.6328125 168.57421875 C159.41552783 157.68168801 139.42905276 161.16205202 124.32421875 175.484375 Z " fill="#5764F2" transform="translate(186,62)"/>
</svg>
