<?xml version="1.0" encoding="UTF-8"?>
<svg version="1.1" xmlns="http://www.w3.org/2000/svg" width="512" height="512">
<path d="M0 0 C1.01790619 0.00215515 2.03581238 0.0043103 3.08456421 0.00653076 C17.69363523 0.05620146 32.02575853 0.30709809 46.375 3.3125 C47.34985352 3.51117676 48.32470703 3.70985352 49.32910156 3.91455078 C97.7109774 14.03517194 141.69928269 35.9516877 177.375 70.3125 C178.3640332 71.26068604 178.3640332 71.26068604 179.37304688 72.22802734 C188.86130305 81.37247479 197.6012044 90.66984009 205.375 101.3125 C206.23306152 102.46355017 207.09113451 103.61459177 207.94921875 104.765625 C213.98736829 112.95680614 219.34595521 121.47054105 224.375 130.3125 C224.73948242 130.94430176 225.10396484 131.57610352 225.47949219 132.22705078 C247.00981855 169.84336237 256.83759735 212.56515288 256.75 255.625 C256.74918427 257.13927582 256.74918427 257.13927582 256.74835205 258.68414307 C256.70758601 275.19373539 255.80029309 291.11032001 252.375 307.3125 C252.15537598 308.35438477 251.93575195 309.39626953 251.70947266 310.46972656 C242.71140931 351.72199434 223.99081216 390.29861405 196.375 422.3125 C195.74078125 423.05757813 195.1065625 423.80265625 194.453125 424.5703125 C182.64198485 438.07529833 169.89139772 450.74668743 155.375 461.3125 C154.22505169 462.16899066 153.07531411 463.02576433 151.92578125 463.8828125 C143.73565742 469.92284209 135.23120382 475.30617614 126.375 480.3125 C125.66778809 480.7146875 124.96057617 481.116875 124.23193359 481.53125 C101.11239063 494.54775099 75.96330247 503.281052 50 508.625 C49.28948486 508.77235596 48.57896973 508.91971191 47.84692383 509.0715332 C32.20458949 512.05794017 16.56823907 512.68730954 0.6875 512.625 C-0.27989105 512.62317719 -1.2472821 512.62135437 -2.24398804 512.61947632 C-16.57690977 512.57404826 -30.52273917 512.06516072 -44.625 509.3125 C-45.52202637 509.15152832 -46.41905273 508.99055664 -47.34326172 508.82470703 C-96.03093124 500.01471851 -141.05505908 476.57143453 -176.625 442.3125 C-177.28435547 441.68037598 -177.94371094 441.04825195 -178.62304688 440.39697266 C-188.11130305 431.25252521 -196.8512044 421.95515991 -204.625 411.3125 C-205.48306152 410.16144983 -206.34113451 409.01040823 -207.19921875 407.859375 C-213.23736829 399.66819386 -218.59595521 391.15445895 -223.625 382.3125 C-223.98948242 381.68069824 -224.35396484 381.04889648 -224.72949219 380.39794922 C-239.66085402 354.31089649 -249.13420268 324.97749753 -253.625 295.3125 C-253.80232666 294.19367432 -253.97965332 293.07484863 -254.16235352 291.92211914 C-255.84376341 280.20014053 -255.98234341 268.57751024 -255.9375 256.75 C-255.93426727 255.21939438 -255.93426727 255.21939438 -255.93096924 253.65786743 C-255.88133352 239.03039476 -255.63419712 224.67986162 -252.625 210.3125 C-252.42632324 209.33764648 -252.22764648 208.36279297 -252.02294922 207.35839844 C-241.90232806 158.9765226 -219.9858123 114.98821731 -185.625 79.3125 C-184.99287598 78.65314453 -184.36075195 77.99378906 -183.70947266 77.31445312 C-174.56502521 67.82619695 -165.26765991 59.0862956 -154.625 51.3125 C-153.47394983 50.45443848 -152.32290823 49.59636549 -151.171875 48.73828125 C-142.98224019 42.70072604 -134.47961724 37.31792698 -125.625 32.3125 C-124.91778809 31.9103125 -124.21057617 31.508125 -123.48193359 31.09375 C-100.34654164 18.0683259 -75.17537591 9.31948539 -49.1875 4 C-48.46860596 3.85264404 -47.74971191 3.70528809 -47.0090332 3.5534668 C-31.36274391 0.57960912 -15.88931954 -0.06050362 0 0 Z " fill="#1877F2" transform="translate(255.625,-0.3125)"/>
<path d="M0 0 C1.0070549 0.0036557 1.0070549 0.0036557 2.03445435 0.00738525 C14.12444963 0.05852389 26.05707585 0.82142024 38.0625 2.25 C39.67315582 2.43117867 41.28383244 2.61217267 42.89453125 2.79296875 C53.64969126 4.04359563 53.64969126 4.04359563 56.0625 5.25 C56.0625 26.04 56.0625 46.83 56.0625 68.25 C36.375 68.5 36.375 68.5 30.24731445 68.54785156 C16.41656808 68.75190188 3.0953813 70.03828973 -7.61328125 79.7734375 C-14.36675937 86.91234985 -16.9904644 96.31617554 -17.14282227 105.95825195 C-17.16300415 107.09460083 -17.18318604 108.23094971 -17.20397949 109.4017334 C-17.22045532 110.58529419 -17.23693115 111.76885498 -17.25390625 112.98828125 C-17.28188293 114.63201721 -17.28188293 114.63201721 -17.3104248 116.30895996 C-17.37860456 120.39339309 -17.43882846 124.4779559 -17.5 128.5625 C-17.644375 137.699375 -17.78875 146.83625 -17.9375 156.25 C5.4925 156.25 28.9225 156.25 53.0625 156.25 C51.93748364 168.62517995 51.93748364 168.62517995 51.13867188 173.63598633 C50.87334656 175.31746513 50.87334656 175.31746513 50.60266113 177.03291321 C50.41409546 178.20412216 50.22552979 179.37533112 50.03125 180.58203125 C49.73728333 182.43510139 49.73728333 182.43510139 49.43737793 184.3256073 C48.92088238 187.57703316 48.40125485 190.82793714 47.88006592 194.07861328 C47.35085995 197.38465032 46.82610162 200.69139021 46.30078125 203.99804688 C43.43529501 222.01322996 43.43529501 222.01322996 42.0625 230.25 C22.2625 230.25 2.4625 230.25 -17.9375 230.25 C-17.9375 289.65 -17.9375 349.05 -17.9375 410.25 C-38.68684743 412.55548305 -38.68684743 412.55548305 -46.72265625 412.515625 C-47.63349472 412.51753845 -48.54433319 412.5194519 -49.48277283 412.52142334 C-51.37531822 412.52276211 -53.26787356 412.51923105 -55.16040039 412.51074219 C-58.00103009 412.4999961 -60.84102955 412.51072455 -63.68164062 412.5234375 C-74.85474905 412.53166485 -85.90599029 412.15683356 -96.9375 410.25 C-97.9375 409.25 -97.9375 409.25 -98.06054783 406.33144283 C-98.05962604 405.01235707 -98.05870424 403.69327131 -98.05775452 402.33421326 C-98.05860894 401.60240296 -98.05946337 400.87059266 -98.06034368 400.1166063 C-98.06200066 397.64599121 -98.05647359 395.1754429 -98.05102539 392.70483398 C-98.05074354 390.94116213 -98.05090121 389.17749015 -98.0514679 387.41381836 C-98.05175595 382.61030157 -98.04585792 377.80680953 -98.03889394 373.00329852 C-98.03266174 367.98910315 -98.03205671 362.97490727 -98.03086853 357.96070862 C-98.02775482 348.4586324 -98.01954089 338.95656762 -98.00951904 329.45449644 C-97.99835914 318.63968661 -97.99284776 307.82487625 -97.98782361 297.0100621 C-97.97735831 274.75670025 -97.95901234 252.5033541 -97.9375 230.25 C-119.3875 230.25 -140.8375 230.25 -162.9375 230.25 C-162.9375 205.83 -162.9375 181.41 -162.9375 156.25 C-141.4875 156.25 -120.0375 156.25 -97.9375 156.25 C-97.98970703 148.87527344 -97.98970703 148.87527344 -98.04296875 141.3515625 C-98.05833492 138.19790446 -98.0727793 135.04429393 -98.08398438 131.890625 C-98.10177384 126.90777756 -98.12259182 121.92509868 -98.16381836 116.94238281 C-98.19691741 112.91580766 -98.21445685 108.88941377 -98.22213173 104.86271286 C-98.22758623 103.34246347 -98.2382304 101.82222161 -98.25469017 100.30205154 C-98.40133509 86.1692078 -97.25790078 71.61738194 -92.125 58.3125 C-91.86638184 57.61632568 -91.60776367 56.92015137 -91.34130859 56.20288086 C-84.23361528 37.6070715 -71.3364027 22.0447513 -53.9375 12.25 C-53.16019531 11.80011719 -52.38289063 11.35023437 -51.58203125 10.88671875 C-35.56236079 2.21945986 -17.96570194 -0.12857618 0 0 Z " fill="#FEFEFE" transform="translate(313.9375,99.75)"/>
</svg>
