<?xml version="1.0" encoding="UTF-8"?>
<svg version="1.1" xmlns="http://www.w3.org/2000/svg" width="512" height="512">
<path d="M0 0 C2.65470441 -0.0040723 5.30938386 -0.00931091 7.96408081 -0.01593018 C14.38775626 -0.02917735 20.81132577 -0.02643042 27.23500514 -0.01769225 C32.46186479 -0.01088025 37.68869503 -0.01001407 42.91555786 -0.0132637 C44.03708782 -0.01395325 44.03708782 -0.01395325 45.18127495 -0.01465673 C46.70081545 -0.01561603 48.22035594 -0.01658868 49.73989642 -0.0175745 C63.94429051 -0.02610198 78.14862625 -0.01633595 92.35301077 -0.0001734 C104.50587751 0.01322737 116.65865825 0.01089853 128.81152344 -0.00292969 C142.96970373 -0.01903243 157.12783306 -0.02527825 171.28602123 -0.0160929 C172.79955736 -0.01513738 174.3130935 -0.01419427 175.82662964 -0.0132637 C176.94327628 -0.01256946 176.94327628 -0.01256946 178.08248144 -0.0118612 C183.29500062 -0.00928534 188.50748711 -0.01361175 193.72000122 -0.02070236 C200.08386788 -0.02916998 206.44762372 -0.02672788 212.8114779 -0.01086013 C216.05014996 -0.00304738 219.28860287 -0.00141582 222.5272789 -0.00980759 C252.64950785 -0.08061805 281.14845494 4.66520382 304.37109375 25.38818359 C305.57765625 26.38205078 305.57765625 26.38205078 306.80859375 27.39599609 C327.53526591 44.94889658 339.56357836 70.57920336 342.37109375 97.38818359 C342.90401522 106.25202973 342.78227549 115.14130015 342.75927734 124.01708984 C342.76334965 126.67179425 342.76858825 129.3264737 342.77520752 131.98117065 C342.78845469 138.4048461 342.78570776 144.82841561 342.7769696 151.25209498 C342.77015759 156.47895464 342.76929141 161.70578487 342.77254105 166.93264771 C342.77300075 167.68033434 342.77346044 168.42802098 342.77393407 169.19836479 C342.77489338 170.71790529 342.77586602 172.23744578 342.77685185 173.75698626 C342.78537932 187.96138036 342.7756133 202.1657161 342.75945075 216.37010062 C342.74604998 228.52296736 342.74837882 240.67574809 342.76220703 252.82861328 C342.77830977 266.98679358 342.7845556 281.1449229 342.77537024 295.30311108 C342.77441473 296.8166472 342.77347161 298.33018334 342.77254105 299.84371948 C342.77207822 300.58815058 342.77161539 301.33258167 342.77113854 302.09957129 C342.76856269 307.31209047 342.7728891 312.52457695 342.77997971 317.73709106 C342.78844733 324.10095772 342.78600523 330.46471357 342.77013747 336.82856774 C342.76232472 340.06723981 342.76069317 343.30569271 342.76908493 346.54436874 C342.83989539 376.66659769 338.09407352 405.16554478 317.37109375 428.38818359 C316.70851563 429.19255859 316.0459375 429.99693359 315.36328125 430.82568359 C297.81038076 451.55235575 272.18007399 463.5806682 245.37109375 466.38818359 C236.50724762 466.92110506 227.61797719 466.79936533 218.7421875 466.77636719 C216.08748309 466.78043949 213.43280364 466.78567809 210.77810669 466.79229736 C204.35443124 466.80554454 197.93086173 466.80279761 191.50718236 466.79405944 C186.28032271 466.78724743 181.05349247 466.78638125 175.82662964 466.78963089 C174.70509968 466.79032044 174.70509968 466.79032044 173.56091255 466.79102392 C172.04137205 466.79198322 170.52183156 466.79295586 169.00229108 466.79394169 C154.79789699 466.80246917 140.59356125 466.79270314 126.38917673 466.77654059 C114.23630999 466.76313982 102.08352925 466.76546866 89.93066406 466.77929688 C75.77248377 466.79539962 61.61435444 466.80164544 47.45616627 466.79246008 C45.94263014 466.79150457 44.429094 466.79056146 42.91555786 466.78963089 C41.79891122 466.78893665 41.79891122 466.78893665 40.65970606 466.78822839 C35.44718688 466.78565253 30.23470039 466.78997894 25.02218628 466.79706955 C18.65831962 466.80553717 12.29456378 466.80309507 5.9307096 466.78722732 C2.69203754 466.77941456 -0.54641537 466.77778301 -3.7850914 466.78617477 C-33.90732035 466.85698523 -62.40626744 462.11116337 -85.62890625 441.38818359 C-86.43328125 440.72560547 -87.23765625 440.06302734 -88.06640625 439.38037109 C-108.79307841 421.82747061 -120.82139086 396.19716383 -123.62890625 369.38818359 C-124.16182772 360.52433746 -124.04008799 351.63506704 -124.01708984 342.75927734 C-124.02116215 340.10457293 -124.02640075 337.44989349 -124.03302002 334.79519653 C-124.04626719 328.37152108 -124.04352026 321.94795158 -124.0347821 315.5242722 C-124.02797009 310.29741255 -124.02710391 305.07058231 -124.03035355 299.84371948 C-124.03081325 299.09603284 -124.03127294 298.3483462 -124.03174657 297.57800239 C-124.03270588 296.0584619 -124.03367852 294.53892141 -124.03466435 293.01938093 C-124.04319182 278.81498683 -124.0334258 264.61065109 -124.01726325 250.40626657 C-124.00386248 238.25339983 -124.00619132 226.1006191 -124.02001953 213.94775391 C-124.03612227 199.78957361 -124.0423681 185.63144429 -124.03318274 171.47325611 C-124.03222723 169.95971998 -124.03128411 168.44618385 -124.03035355 166.93264771 C-124.02989072 166.18821661 -124.02942789 165.44378551 -124.02895104 164.6767959 C-124.02637519 159.46427672 -124.0307016 154.25179024 -124.03779221 149.03927612 C-124.04625983 142.67540947 -124.04381773 136.31165362 -124.02794997 129.94779944 C-124.02013722 126.70912738 -124.01850567 123.47067448 -124.02689743 120.23199844 C-124.09770789 90.1097695 -119.35188602 61.61082241 -98.62890625 38.38818359 C-97.96632813 37.58380859 -97.30375 36.77943359 -96.62109375 35.95068359 C-71.65391401 6.46914294 -36.79721176 -0.09534561 0 0 Z " fill="#D34772" transform="translate(146.62890625,22.61181640625)"/>
<path d="M0 0 C2.65470441 -0.0040723 5.30938386 -0.00931091 7.96408081 -0.01593018 C14.38775626 -0.02917735 20.81132577 -0.02643042 27.23500514 -0.01769225 C32.46186479 -0.01088025 37.68869503 -0.01001407 42.91555786 -0.0132637 C44.03708782 -0.01395325 44.03708782 -0.01395325 45.18127495 -0.01465673 C46.70081545 -0.01561603 48.22035594 -0.01658868 49.73989642 -0.0175745 C63.94429051 -0.02610198 78.14862625 -0.01633595 92.35301077 -0.0001734 C104.50587751 0.01322737 116.65865825 0.01089853 128.81152344 -0.00292969 C142.96970373 -0.01903243 157.12783306 -0.02527825 171.28602123 -0.0160929 C172.79955736 -0.01513738 174.3130935 -0.01419427 175.82662964 -0.0132637 C176.94327628 -0.01256946 176.94327628 -0.01256946 178.08248144 -0.0118612 C183.29500062 -0.00928534 188.50748711 -0.01361175 193.72000122 -0.02070236 C200.08386788 -0.02916998 206.44762372 -0.02672788 212.8114779 -0.01086013 C216.05014996 -0.00304738 219.28860287 -0.00141582 222.5272789 -0.00980759 C252.64950785 -0.08061805 281.14845494 4.66520382 304.37109375 25.38818359 C305.57765625 26.38205078 305.57765625 26.38205078 306.80859375 27.39599609 C327.53526591 44.94889658 339.56357836 70.57920336 342.37109375 97.38818359 C342.90401522 106.25202973 342.78227549 115.14130015 342.75927734 124.01708984 C342.76334965 126.67179425 342.76858825 129.3264737 342.77520752 131.98117065 C342.78845469 138.4048461 342.78570776 144.82841561 342.7769696 151.25209498 C342.77015759 156.47895464 342.76929141 161.70578487 342.77254105 166.93264771 C342.77300075 167.68033434 342.77346044 168.42802098 342.77393407 169.19836479 C342.77489338 170.71790529 342.77586602 172.23744578 342.77685185 173.75698626 C342.78537932 187.96138036 342.7756133 202.1657161 342.75945075 216.37010062 C342.74604998 228.52296736 342.74837882 240.67574809 342.76220703 252.82861328 C342.77830977 266.98679358 342.7845556 281.1449229 342.77537024 295.30311108 C342.77441473 296.8166472 342.77347161 298.33018334 342.77254105 299.84371948 C342.77207822 300.58815058 342.77161539 301.33258167 342.77113854 302.09957129 C342.76856269 307.31209047 342.7728891 312.52457695 342.77997971 317.73709106 C342.78844733 324.10095772 342.78600523 330.46471357 342.77013747 336.82856774 C342.76232472 340.06723981 342.76069317 343.30569271 342.76908493 346.54436874 C342.83989539 376.66659769 338.09407352 405.16554478 317.37109375 428.38818359 C316.70851563 429.19255859 316.0459375 429.99693359 315.36328125 430.82568359 C297.81038076 451.55235575 272.18007399 463.5806682 245.37109375 466.38818359 C236.50724762 466.92110506 227.61797719 466.79936533 218.7421875 466.77636719 C216.08748309 466.78043949 213.43280364 466.78567809 210.77810669 466.79229736 C204.35443124 466.80554454 197.93086173 466.80279761 191.50718236 466.79405944 C186.28032271 466.78724743 181.05349247 466.78638125 175.82662964 466.78963089 C174.70509968 466.79032044 174.70509968 466.79032044 173.56091255 466.79102392 C172.04137205 466.79198322 170.52183156 466.79295586 169.00229108 466.79394169 C154.79789699 466.80246917 140.59356125 466.79270314 126.38917673 466.77654059 C114.23630999 466.76313982 102.08352925 466.76546866 89.93066406 466.77929688 C75.77248377 466.79539962 61.61435444 466.80164544 47.45616627 466.79246008 C45.94263014 466.79150457 44.429094 466.79056146 42.91555786 466.78963089 C41.79891122 466.78893665 41.79891122 466.78893665 40.65970606 466.78822839 C35.44718688 466.78565253 30.23470039 466.78997894 25.02218628 466.79706955 C18.65831962 466.80553717 12.29456378 466.80309507 5.9307096 466.78722732 C2.69203754 466.77941456 -0.54641537 466.77778301 -3.7850914 466.78617477 C-33.90732035 466.85698523 -62.40626744 462.11116337 -85.62890625 441.38818359 C-86.43328125 440.72560547 -87.23765625 440.06302734 -88.06640625 439.38037109 C-108.79307841 421.82747061 -120.82139086 396.19716383 -123.62890625 369.38818359 C-124.16182772 360.52433746 -124.04008799 351.63506704 -124.01708984 342.75927734 C-124.02116215 340.10457293 -124.02640075 337.44989349 -124.03302002 334.79519653 C-124.04626719 328.37152108 -124.04352026 321.94795158 -124.0347821 315.5242722 C-124.02797009 310.29741255 -124.02710391 305.07058231 -124.03035355 299.84371948 C-124.03081325 299.09603284 -124.03127294 298.3483462 -124.03174657 297.57800239 C-124.03270588 296.0584619 -124.03367852 294.53892141 -124.03466435 293.01938093 C-124.04319182 278.81498683 -124.0334258 264.61065109 -124.01726325 250.40626657 C-124.00386248 238.25339983 -124.00619132 226.1006191 -124.02001953 213.94775391 C-124.03612227 199.78957361 -124.0423681 185.63144429 -124.03318274 171.47325611 C-124.03222723 169.95971998 -124.03128411 168.44618385 -124.03035355 166.93264771 C-124.02989072 166.18821661 -124.02942789 165.44378551 -124.02895104 164.6767959 C-124.02637519 159.46427672 -124.0307016 154.25179024 -124.03779221 149.03927612 C-124.04625983 142.67540947 -124.04381773 136.31165362 -124.02794997 129.94779944 C-124.02013722 126.70912738 -124.01850567 123.47067448 -124.02689743 120.23199844 C-124.09770789 90.1097695 -119.35188602 61.61082241 -98.62890625 38.38818359 C-97.96632813 37.58380859 -97.30375 36.77943359 -96.62109375 35.95068359 C-71.65391401 6.46914294 -36.79721176 -0.09534561 0 0 Z M-30.48046875 86.34521484 C-32.62890625 88.38818359 -32.62890625 88.38818359 -35.10546875 90.29443359 C-52.86206859 105.0274638 -61.24125653 130.30223537 -63.62890625 152.38818359 C-63.89723049 157.82288725 -63.91362036 163.24719066 -63.90356445 168.68652344 C-63.90792413 170.2685215 -63.9131114 171.85051746 -63.91905212 173.43251038 C-63.93231789 177.68677646 -63.93303486 181.94095303 -63.93048882 186.19523573 C-63.9294107 189.76585387 -63.93432375 193.33645451 -63.93909425 196.90706885 C-63.95014628 205.3402405 -63.95065107 213.7733676 -63.94458008 222.20654297 C-63.93854242 230.86460366 -63.95085596 239.52250175 -63.97215015 248.18053472 C-63.98984434 255.65362712 -63.99575529 263.12666813 -63.9925124 270.59978068 C-63.99071197 275.04572586 -63.99321043 279.491555 -64.00722694 283.93748093 C-64.01992905 288.1221163 -64.01774607 292.30650061 -64.00481606 296.49113274 C-64.00247747 298.0131292 -64.00508533 299.53514404 -64.01343918 301.05711937 C-64.1456581 327.05140993 -56.81179715 351.57908666 -39.62890625 371.38818359 C-38.86578125 372.39880859 -38.10265625 373.40943359 -37.31640625 374.45068359 C-20.87657841 392.41979774 4.14079797 404.61257084 28.50823557 405.78172785 C38.60405357 406.15150906 48.70910849 406.12000174 58.81014013 406.09274268 C62.59674571 406.08552872 66.38325257 406.09416611 70.16985047 406.10264808 C79.11739604 406.12248848 88.06467374 406.11715942 97.01220703 406.0949707 C106.17829257 406.07262328 115.34367309 406.09021136 124.50969207 406.12801999 C132.44078829 406.15945951 140.37166869 406.16710831 148.30281937 406.15606624 C153.01278003 406.14964488 157.7223351 406.15126074 162.43224716 406.17539024 C194.00345188 406.31983166 222.18627962 403.29040062 247.37109375 382.38818359 C248.02207031 381.88802734 248.67304688 381.38787109 249.34375 380.87255859 C260.69053847 371.87783789 268.53115866 358.77688401 274.55859375 345.82568359 C274.87965088 345.16109131 275.20070801 344.49649902 275.53149414 343.81176758 C281.55479163 330.3320915 282.97237565 315.89205196 282.85693359 301.32861328 C282.85908775 299.7132232 282.86297764 298.09783468 282.86843872 296.48245239 C282.87800332 292.1561121 282.86299467 287.83019452 282.84253263 283.5039053 C282.82475474 278.94346665 282.82849064 274.38303705 282.82925415 269.8225708 C282.82739078 262.17379832 282.81015507 254.52518614 282.78271484 246.87646484 C282.75122942 238.06834164 282.74072084 229.26039325 282.74218595 220.45221782 C282.74354269 211.01694744 282.7296347 201.58174322 282.71129274 192.14649296 C282.70705669 189.45124364 282.70561407 186.7560052 282.70481491 184.06075287 C282.7027875 179.80878825 282.69042927 175.55696698 282.67048264 171.3050499 C282.66470412 169.75641891 282.66216714 168.20777142 282.66333771 166.6591301 C282.67586412 139.9704906 276.30911345 115.72827073 258.37109375 95.38818359 C257.92894531 94.80423828 257.48679687 94.22029297 257.03125 93.61865234 C242.33811528 74.54883919 217.4119797 64.99386889 194.37109375 61.38818359 C188.52360416 60.78326961 182.66417189 60.83778775 176.79248047 60.87060547 C175.12121985 60.86516529 173.44996404 60.85803215 171.77871704 60.84936523 C167.29938965 60.83135665 162.82043675 60.83810412 158.34110403 60.85088158 C153.61876123 60.86112401 148.89644706 60.85158542 144.17410278 60.84533691 C136.25126482 60.83809426 128.32857683 60.84756023 120.40576172 60.86669922 C111.28631266 60.88847648 102.16722133 60.88139668 93.04778087 60.8593936 C85.17119373 60.84116057 77.29471338 60.83871922 69.41811192 60.84914827 C64.73411464 60.85533808 60.05028475 60.85634453 55.36629868 60.84300232 C50.96155925 60.83132787 46.55727505 60.83967767 42.15258408 60.86257935 C40.54996491 60.86780459 38.94730647 60.8664609 37.34470367 60.85752869 C12.46054946 60.73177037 -12.35489467 68.88742508 -30.48046875 86.34521484 Z " fill="#C26079" transform="translate(146.62890625,22.61181640625)"/>
<path d="M0 0 C1.66181811 -0.00763227 3.32363273 -0.01606159 4.98544312 -0.02522278 C9.48205149 -0.04708208 13.97859188 -0.05595627 18.47524738 -0.06104922 C21.29482374 -0.064706 24.11438267 -0.07095316 26.93395233 -0.07805061 C36.80070263 -0.10252508 46.6674006 -0.11559059 56.53417969 -0.11914062 C65.68006411 -0.12276401 74.82561052 -0.15257839 83.97139192 -0.19454521 C91.8605951 -0.22945517 99.74968753 -0.24469269 107.63896728 -0.24538666 C112.33395928 -0.24617311 117.0286073 -0.25461481 121.72351837 -0.28338432 C159.34266431 -0.49982205 159.34266431 -0.49982205 176.52246094 5.30639648 C177.77955872 5.7055275 179.03665649 6.10465851 180.33184814 6.5158844 C204.33552367 14.50028782 223.16122116 34.5201899 234.296875 56.60961914 C242.16098738 72.83828742 243.66874024 89.45671524 243.69946289 107.28076172 C243.70573857 108.88833255 243.71238632 110.49590196 243.71937561 112.10346985 C243.74029168 117.35729995 243.7507681 122.61112992 243.76074219 127.86499023 C243.76479477 129.6838641 243.76891183 131.50273783 243.77309227 133.3216114 C243.79211866 141.87313348 243.80635354 150.42464708 243.81470424 158.97618622 C243.82445935 168.79983589 243.85074449 178.62325923 243.89120513 188.44682926 C243.92151368 196.07100997 243.93618709 203.69512633 243.93948525 211.31936604 C243.9418194 215.85828653 243.95056382 220.39696455 243.97594643 224.93581963 C243.99949131 229.21481584 244.00335627 233.49341444 243.99318504 237.77245903 C243.99269588 239.32748754 243.99882911 240.88253746 244.01274109 242.43750381 C244.13524451 256.96357647 242.09589236 271.52836598 235.70996094 284.74389648 C235.36231689 285.48921631 235.01467285 286.23453613 234.65649414 287.00244141 C223.52263384 310.37365467 204.78679003 329.15010997 180.23925781 338.14282227 C176.06650458 339.52693339 171.85418122 340.73422895 167.58609432 341.78748941 C165.63050633 342.27922813 163.68569147 342.81324489 161.74187565 343.34963226 C157.82605213 344.32395685 154.15614829 344.56795677 150.10948181 344.58728027 C149.40833632 344.59322252 148.70719082 344.59916476 147.98479849 344.60528708 C145.65867973 344.62249106 143.33276889 344.62566301 141.0065918 344.62866211 C139.3284614 344.63793138 137.65033518 344.64798241 135.97221375 344.65875244 C131.4258351 344.68489952 126.87951541 344.69787309 122.33307338 344.70677376 C119.48182765 344.71265779 116.63059759 344.72087201 113.77935982 344.7297821 C104.82790392 344.75711914 95.87648437 344.77645294 86.92498964 344.78418589 C76.65072481 344.79311369 66.3769966 344.82805784 56.10289472 344.88618708 C48.12620847 344.92972225 40.14967138 344.9496107 32.17286783 344.95226812 C27.42630825 344.95434488 22.68025336 344.96573592 17.93382072 345.00190735 C-14.1655052 345.23228717 -43.38763586 342.7445213 -68.47753906 320.30639648 C-69.48816406 319.54327148 -70.49878906 318.78014648 -71.54003906 317.99389648 C-90.04178172 301.06677023 -101.42804166 275.4849939 -102.66309357 250.56195259 C-102.73580624 246.40325895 -102.74845141 242.24893967 -102.73632812 238.08984375 C-102.73904517 236.50474895 -102.74261008 234.91965541 -102.74694824 233.33456421 C-102.75599046 229.0679691 -102.75256185 224.80147176 -102.74619007 220.53487515 C-102.74108653 216.04513383 -102.74583361 211.55540026 -102.7489624 207.06565857 C-102.75258983 199.52829503 -102.74783558 191.99097083 -102.73828125 184.45361328 C-102.72740303 175.77227548 -102.73092264 167.09103168 -102.74193406 158.40969616 C-102.75104667 150.92222024 -102.75227276 143.43477242 -102.74705672 135.94729275 C-102.74395827 131.49024762 -102.74346853 127.0332465 -102.7501297 122.5762043 C-102.75596055 118.3826005 -102.75180276 114.1891164 -102.74034119 109.99552536 C-102.73772481 108.46785492 -102.73840705 106.94017418 -102.74286652 105.41250801 C-102.81350367 78.72857087 -96.35101291 54.60811511 -78.47753906 34.30639648 C-77.71441406 33.29577148 -76.95128906 32.28514648 -76.16503906 31.24389648 C-64.98342611 19.02213349 -50.20272937 10.2633681 -34.54003906 5.18139648 C-33.79302734 4.9300293 -33.04601562 4.67866211 -32.27636719 4.41967773 C-30.01453495 3.67419032 -27.77113926 2.94965098 -25.47753906 2.30639648 C-23.68101143 1.79877525 -23.68101143 1.79877525 -21.84819031 1.28089905 C-14.66286274 -0.28887724 -7.31628146 0.00213538 0 0 Z M-56.66503906 55.86889648 C-59.82743356 60.05939454 -62.37745544 64.46998851 -64.79003906 69.11889648 C-65.11576904 69.73385986 -65.44149902 70.34882324 -65.77709961 70.98242188 C-71.30224723 82.20084255 -71.9224622 94.10893373 -71.8815918 106.38354492 C-71.88730905 107.95392335 -71.89427849 109.52429764 -71.90238953 111.09466553 C-71.92019016 115.32223602 -71.91917704 119.54959746 -71.91344714 123.77719402 C-71.91033505 127.32530753 -71.91647028 130.87338204 -71.92248589 134.42148995 C-71.93648763 142.80340649 -71.93500728 151.18522103 -71.92358398 159.56713867 C-71.91211737 168.17011336 -71.92616387 176.77277575 -71.95298046 185.3757093 C-71.97524721 192.80125085 -71.98174998 200.22669518 -71.97590405 207.65226769 C-71.97255812 212.06978608 -71.97478957 216.4871046 -71.99215508 220.90459442 C-72.00779762 225.06466946 -72.00348047 229.22428789 -71.98484993 233.38434601 C-71.98121078 234.89624453 -71.98413277 236.40817822 -71.99473572 237.92004395 C-72.13294014 259.28629505 -66.62495646 278.53201645 -51.47753906 294.30639648 C-46.1309862 299.51274254 -40.1954443 303.22022524 -33.60253906 306.61889648 C-32.66752563 307.10749146 -32.66752563 307.10749146 -31.71362305 307.60595703 C-20.60016271 313.05151011 -9.30913282 313.74376865 2.85668945 313.67871094 C4.46620925 313.68114433 6.07572753 313.68486893 7.6852417 313.68977356 C12.02199038 313.69911054 16.35851051 313.68981858 20.69524121 313.67644143 C25.25312116 313.66504946 29.81099112 313.66924034 34.36888123 313.67118835 C42.01898898 313.67206881 49.66900769 313.66104245 57.3190918 313.64257812 C66.14077818 313.62140679 74.96233433 313.61790377 83.78404099 313.62414008 C92.30139213 313.62985102 100.81869782 313.62416822 109.3360424 313.61296654 C112.94699896 313.60834419 116.55792749 313.60743638 120.16888618 313.60955238 C124.42649735 313.61144755 128.68397753 313.60323778 132.94155884 313.58749199 C134.49628596 313.58327988 136.05102646 313.58237765 137.60575676 313.58518219 C158.80552847 313.61759973 177.35872191 308.86828814 193.14355469 293.86889648 C208.51548724 277.31062431 212.82993552 258.51555116 212.81298828 236.42456055 C212.81898493 234.85123378 212.82579306 233.27790992 212.83334351 231.70458984 C212.85089488 227.46055178 212.85569426 223.21659454 212.85697508 218.97252369 C212.8584034 216.31278726 212.86268579 213.65307094 212.86796951 210.99333954 C212.8864337 201.69110322 212.89464465 192.38892396 212.89306641 183.08666992 C212.89186592 174.45303643 212.91295932 165.81965328 212.94455373 157.18608308 C212.97081235 149.7419399 212.98142971 142.29787802 212.98015559 134.85368896 C212.97964878 130.42165913 212.98517507 125.98985212 213.00651169 121.55786896 C213.02605673 117.38471365 213.02590911 113.21199003 213.01147842 109.03881836 C213.00940923 107.51962392 213.01397644 106.00040126 213.02619934 104.48125458 C213.18107079 83.87508923 207.02923058 65.38769166 192.52246094 50.30639648 C179.67332834 37.97994047 162.38287081 31.22285698 144.63783264 31.15922546 C143.96950344 31.15554878 143.30117424 31.15187209 142.61259264 31.14808398 C140.38600756 31.13712207 138.15946926 31.13321608 135.93286133 31.12939453 C134.33071752 31.123124 132.72857514 31.11647668 131.12643433 31.10948181 C125.87433879 31.08850158 120.62224318 31.07808212 115.37011719 31.06811523 C113.55582604 31.06406482 111.74153504 31.05994782 109.92724419 31.05576515 C101.39760941 31.03672335 92.86798321 31.02249261 84.33833128 31.01415318 C74.52424146 31.00439725 64.71037817 30.97811654 54.89636809 30.93765229 C47.29097821 30.90738158 39.68565285 30.8926738 32.08020395 30.88937217 C27.54748266 30.88703336 23.01500362 30.87822705 18.48234749 30.852911 C14.20996624 30.82943388 9.93798337 30.82547485 5.66555405 30.83567238 C4.10926797 30.83616319 2.55296094 30.8299794 0.99673653 30.81611633 C-21.65906778 30.62581333 -41.56029767 38.35444927 -56.66503906 55.86889648 Z " fill="#FEFDFD" transform="translate(185.4775390625,83.693603515625)"/>
<path d="M0 0 C19.77280977 15.29137662 33.07547055 36.11670336 36.48828125 61.16015625 C38.76237354 86.26970647 31.98499808 109.35336379 16.2265625 128.9765625 C0.041567 147.47773537 -21.09189641 159.57123824 -45.82666016 161.32421875 C-70.74390008 162.54490411 -93.08895614 155.10461117 -111.88671875 138.66015625 C-128.67772127 122.74711464 -140.10378113 102.60871739 -141.51171875 79.16015625 C-141.55409668 78.47630859 -141.59647461 77.79246094 -141.64013672 77.08789062 C-142.93332079 52.98422726 -135.03716522 31.15352365 -119.07421875 12.91015625 C-87.80283727 -20.4388809 -37.67209541 -27.59495636 0 0 Z " fill="#FEFDFD" transform="translate(308.51171875,183.83984375)"/>
<path d="M0 0 C13.02163011 11.27362848 21.33499232 25.01877557 22.58984375 42.390625 C23.11162076 58.20699073 18.3878547 72.19470619 8.02734375 84.1796875 C-3.28121637 96.09237771 -16.64922048 103.04587115 -33.16796875 104.16796875 C-50.04356732 104.51422833 -64.14592426 98.90247773 -76.37890625 87.26953125 C-87.91154763 75.44067477 -94.06738659 61.60463594 -93.95874023 45.13232422 C-93.50927788 28.32515628 -86.75540147 14.53292274 -74.66015625 2.9296875 C-53.72600048 -16.45951213 -22.38974177 -17.42520285 0 0 Z " fill="#DE3777" transform="translate(291.66015625,210.0703125)"/>
<path d="M0 0 C5.37299426 3.33430495 9.24810891 7.99432674 11.25 14 C11.99049988 20.83444968 11.37632112 26.37758585 7.25 32 C2.26794348 37.31261951 -2.28216323 40.03562079 -9.625 40.3125 C-16.58425797 40.15739024 -21.63640991 37.82950175 -26.75 33 C-31.06598834 26.83430237 -31.64989488 20.38322842 -30.75 13 C-28.2170275 6.51471697 -23.42521297 2.14387423 -17.5 -1.3125 C-11.3302314 -2.85494215 -5.76075095 -2.89010647 0 0 Z " fill="#FEFCFD" transform="translate(356.75,144)"/>
</svg>
