<?xml version="1.0" encoding="UTF-8"?>
<svg version="1.1" xmlns="http://www.w3.org/2000/svg" width="512" height="512">
<path d="M0 0 C151.47 0 302.94 0 459 0 C460.2375 76.23 460.2375 76.23 461.5 154 C461.86416016 169.97664062 462.22832031 185.95328125 462.60351562 202.4140625 C462.78417969 222.1015625 462.78417969 222.1015625 462.81774902 231.35253906 C462.85466913 237.74447108 463.00028975 244.12188538 463.22302246 250.50976562 C465.20570667 309.17303337 465.20570667 309.17303337 447.49870634 329.06097221 C439.47934423 337.40775583 430.59722074 344.57547942 421.22714359 351.33453882 C416.19987909 355.09393445 411.35921054 359.16248628 407.45271301 364.09994507 C406.86430728 364.8317439 406.27590155 365.56354273 405.66966534 366.31751728 C405.05269189 367.09493873 404.43571844 367.87236017 403.80004883 368.67333984 C394.15880697 380.55793662 384.14045806 392.08512915 373.8125 403.375 C373.34650658 403.88517654 372.88051316 404.39535308 372.40039873 404.92098951 C332.87377752 448.0674245 332.87377752 448.0674245 305.61158752 449.58378601 C293.62910277 449.80117302 281.82977942 448.75356168 269.93204117 447.45801163 C240.74678067 443.13676848 240.74678067 443.13676848 214.32666016 453.04882812 C203.47853219 462.16924597 194.61049311 473.271464 185.71008301 484.22644043 C161.35416381 514.14407346 161.35416381 514.14407346 142.13703728 516.11587524 C124.43940481 517.55250391 107.75116311 514.36925175 90 512 C90 490.22 90 468.44 90 446 C49.41 446 8.82 446 -33 446 C-33.57708163 401.56710502 -34.05559625 357.13784648 -34.32769857 312.70225497 C-34.36020302 307.4135573 -34.39385675 302.12486753 -34.42822266 296.83618164 C-34.43504273 295.78364097 -34.4418628 294.7311003 -34.44888954 293.64666446 C-34.56092577 276.77558222 -34.7652808 259.90688876 -35.0059727 243.03720687 C-35.25223876 225.62692283 -35.39417007 208.21785721 -35.44630086 190.80590409 C-35.47826639 181.06686073 -35.55337784 171.33276365 -35.74898148 161.5955143 C-36.72065068 111.76774411 -31.13858899 71.64366975 -10.14110374 26.14128399 C-6.37798406 17.58584981 -3.23112518 8.77019691 0 0 Z M46 45 C46 151.26 46 257.52 46 367 C79.33 367 112.66 367 147 367 C147 388.45 147 409.9 147 432 C153.48345313 426.45399938 153.48345313 426.45399938 158.15112305 420.01049805 C171.2609435 400.0118531 190.39348109 372.60467302 215.20906067 367.31610107 C223.71211451 366.17582783 232.1719407 366.33019075 240.7265625 366.65625 C242.02225222 366.69778513 243.31794193 366.73932026 244.65289497 366.78211403 C258.01325994 367.26958027 271.09454784 368.32258896 284.28500557 370.56600571 C312.85271867 375.17261826 333.4898098 370.95080475 356.93383789 354.21655273 C385.89948756 332.69005277 412.41897651 305.09006412 418.18784714 268.32559586 C422.76815036 233.33166497 419.84289887 197.70412159 417.8125 162.6875 C416.224375 123.850625 414.63625 85.01375 413 45 C291.89 45 170.78 45 46 45 Z " fill="#6739B7" transform="translate(53,0)"/>
<path d="M0 0 C15.18 0 30.36 0 46 0 C46 44.55 46 89.1 46 135 C30.82 135 15.64 135 0 135 C0 90.45 0 45.9 0 0 Z " fill="#673AB6" transform="translate(221,133)"/>
<path d="M0 0 C14.85 0 29.7 0 45 0 C45 44.55 45 89.1 45 135 C30.15 135 15.3 135 0 135 C0 90.45 0 45.9 0 0 Z " fill="#6639B6" transform="translate(344,133)"/>
</svg>
