<?xml version="1.0" encoding="UTF-8"?>
<svg version="1.1" xmlns="http://www.w3.org/2000/svg" width="512" height="512">
<path d="M0 0 C5.26647667 0.0075446 10.53287806 0.00480818 15.79935199 -0.00360447 C208.66782855 -0.30348218 208.66782855 -0.30348218 237.70731097 27.25713772 C253.85657833 44.06033667 257.11833376 65.84550079 259.89481097 88.06963772 C260.04974017 89.29271633 260.20466937 90.51579494 260.3642934 91.77593654 C263.56257833 119.41489861 264.08319656 147.1121907 264.02516681 174.90124553 C264.01972834 177.61080989 264.01735984 180.32036551 264.01529437 183.02993435 C263.9838308 209.51983249 263.65857452 235.90333054 260.70731097 262.25713772 C260.62998737 262.95921352 260.55266376 263.66128933 260.47299701 264.38464016 C259.47208442 273.38404851 258.25629021 282.33471655 256.70731097 291.25713772 C256.55681293 292.12419338 256.40631488 292.99124904 256.25125629 293.88457912 C252.75873571 313.01634471 244.00839025 328.8347601 227.87137347 340.25323147 C218.36115611 346.27636913 208.78672612 349.5606102 197.70731097 351.25713772 C196.58365131 351.43623684 196.58365131 351.43623684 195.43729144 351.61895412 C133.62382146 361.10694643 68.92437063 359.43693091 6.51981097 359.44463772 C5.10375945 359.44542135 5.10375945 359.44542135 3.65910083 359.44622082 C-32.10339557 359.46448493 -67.87539593 359.00189848 -103.60518903 357.38213772 C-104.99938565 357.32011165 -104.99938565 357.32011165 -106.42174786 357.25683254 C-202.07440025 352.94255159 -202.07440025 352.94255159 -224.78487653 329.13213772 C-255.27048231 294.18290741 -248.70593031 226.8111409 -248.61054486 183.06422848 C-248.60510106 180.46513897 -248.60273612 177.86605857 -248.60067242 175.26696438 C-248.56800788 148.84821145 -248.11648334 122.54915396 -245.29268903 96.25713772 C-245.21772198 95.54712612 -245.14275494 94.83711452 -245.06551617 94.10558742 C-242.12715733 66.58633152 -238.35159666 40.07077083 -216.00753278 21.20245022 C-164.36666944 -15.80064322 -61.72984985 -0.09869923 0 0 Z " fill="#FF0000" transform="translate(248.29268902540207,76.7428622841835)"/>
<path d="M0 0 C3.71229983 1.48491993 6.90600693 2.96807308 10.359375 4.90625 C11.38345459 5.47980225 12.40753418 6.05335449 13.46264648 6.64428711 C14.54747314 7.25667236 15.6322998 7.86905762 16.75 8.5 C17.87672119 9.13365479 19.00344238 9.76730957 20.16430664 10.42016602 C26.95661565 14.25081675 33.7122246 18.13574168 40.41967773 22.11279297 C55.29886567 30.93257511 70.33581515 39.48668992 85.36032104 48.05593872 C95.01254754 53.56150528 104.64852557 59.09372065 114.25 64.6875 C115.21953613 65.25154541 116.18907227 65.81559082 117.18798828 66.39672852 C122.51775339 69.50960121 127.78386647 72.7001221 133 76 C129.76733025 78.6908148 126.57222803 80.93884808 122.88671875 82.9609375 C121.40498169 83.78053955 121.40498169 83.78053955 119.89331055 84.61669922 C118.83539307 85.19693848 117.77747559 85.77717773 116.6875 86.375 C108.13092938 91.11560963 99.62337472 95.9226912 91.1875 100.875 C82.53146824 105.95169008 73.84269096 110.96760282 65.125 115.9375 C55.98898446 121.14767663 46.86042217 126.37012 37.75 131.625 C36.17255005 132.53475586 36.17255005 132.53475586 34.56323242 133.46289062 C29.05742123 136.64276278 23.56053236 139.83739243 18.07421875 143.05078125 C16.40311035 144.02893799 16.40311035 144.02893799 14.69824219 145.02685547 C12.56354823 146.27768767 10.43003656 147.5305403 8.29785156 148.78564453 C6.88004395 149.61684814 6.88004395 149.61684814 5.43359375 150.46484375 C4.18147095 151.20142212 4.18147095 151.20142212 2.90405273 151.95288086 C1 153 1 153 0 153 C0 102.51 0 52.02 0 0 Z " fill="#FFFEFE" transform="translate(205,180)"/>
</svg>
